<?xml version="1.0" encoding="utf-8"?>
<!-- Generator: Adobe Illustrator 16.0.0, SVG Export Plug-In . SVG Version: 6.00 Build 0)  -->
<!DOCTYPE svg PUBLIC "-//W3C//DTD SVG 1.1//EN" "http://www.w3.org/Graphics/SVG/1.1/DTD/svg11.dtd">
<svg version="1.1" id="Layer_1" xmlns="http://www.w3.org/2000/svg" xmlns:xlink="http://www.w3.org/1999/xlink" x="0px" y="0px"
	 width="1px" height="353px" viewBox="0 0 1 353" enable-background="new 0 0 1 353" xml:space="preserve">
<line id="Line_1" fill="none" stroke="#707070" x1="0.5" y1="0" x2="0.5" y2="353"/>
<g id="Ellipse_175_1_">
	<path fill="#2699FB" d="M0.999,353c2086.947,0,3778.655,1691.707,3778.655,3778.653S2087.946,7910.309,0.999,7910.309
		c-2086.835,0-3778.653-1691.707-3778.653-3778.655S-2085.836,353,0.999,353z"/>
	<path fill="none" stroke="#707070" d="M0.999,667.895c1913.107,0,3463.761,1550.653,3463.761,3463.759
		c0,1913.097-1550.653,3463.761-3463.761,3463.761c-1912.979,0-3463.77-1550.664-3463.77-3463.761
		C-3462.771,2218.548-1911.979,667.895,0.999,667.895z"/>
</g>
<g id="Ellipse_175">
	<path fill="#2699FB" d="M-0.001-7716.253c2130.684,0,3858.127,1727.295,3858.127,3858.126S2130.683,0-0.001,0
		c-2130.831,0-3858.126-1727.295-3858.126-3858.126S-2130.832-7716.253-0.001-7716.253z"/>
	<path fill="none" stroke="#707070" d="M-0.001-7394.784c1953.199,0,3536.807,1583.394,3536.807,3536.658
		S1953.198-321.469-0.001-321.469c-1953.226,0-3536.668-1583.394-3536.668-3536.658S-1953.227-7394.784-0.001-7394.784z"/>
</g>
</svg>
